HIERARCHY
ROOT Hips
{
	OFFSET 0.00000 0.00000 0.00000
	CHANNELS 6 Xposition Yposition Zposition Zrotation Yrotation Xrotation 
	JOINT LHipJoint
	{
		OFFSET 0 0 0
		CHANNELS 3 Zrotation Yrotation Xrotation
		JOINT LeftUpLeg
		{
			OFFSET 1.62964 -1.40469 0.78906
			CHANNELS 3 Zrotation Yrotation Xrotation
			JOINT LeftLeg
			{
				OFFSET 2.29640 -6.30932 0.00000
				CHANNELS 3 Zrotation Yrotation Xrotation
				JOINT LeftFoot
				{
					OFFSET 2.29451 -6.30412 0.00000
					CHANNELS 3 Zrotation Yrotation Xrotation
					JOINT LeftToeBase
					{
						OFFSET 0.03611 -0.09921 1.56387
						CHANNELS 3 Zrotation Yrotation Xrotation
						End Site
						{
							OFFSET 0.00000 -0.00000 0.80291
						}
					}
				}
			}
		}
	}
	JOINT RHipJoint
	{
		OFFSET 0 0 0
		CHANNELS 3 Zrotation Yrotation Xrotation
		JOINT RightUpLeg
		{
			OFFSET -1.73712 -1.40469 0.78906
			CHANNELS 3 Zrotation Yrotation Xrotation
			JOINT RightLeg
			{
				OFFSET -2.28137 -6.26801 0.00000
				CHANNELS 3 Zrotation Yrotation Xrotation
				JOINT RightFoot
				{
					OFFSET -2.28681 -6.28298 0.00000
					CHANNELS 3 Zrotation Yrotation Xrotation
					JOINT RightToeBase
					{
						OFFSET -0.15927 -0.43759 1.61103
						CHANNELS 3 Zrotation Yrotation Xrotation
						End Site
						{
							OFFSET -0.00000 -0.00000 0.84630
						}
					}
				}
			}
		}
	}
	JOINT LowerBack
	{
		OFFSET 0 0 0
		CHANNELS 3 Zrotation Yrotation Xrotation
		JOINT Spine
		{
			OFFSET -0.04227 2.04338 -0.00225
			CHANNELS 3 Zrotation Yrotation Xrotation
			JOINT Spine1
			{
				OFFSET -0.02148 2.04482 -0.04273
				CHANNELS 3 Zrotation Yrotation Xrotation
				JOINT Neck
				{
					OFFSET 0 0 0
					CHANNELS 3 Zrotation Yrotation Xrotation
					JOINT Neck1
					{
						OFFSET 0.09180 1.44629 0.19359
						CHANNELS 3 Zrotation Yrotation Xrotation
						JOINT Head
						{
							OFFSET 0.00887 1.40645 0.14750
							CHANNELS 3 Zrotation Yrotation Xrotation
							End Site
							{
								OFFSET -0.00669 1.50671 0.03707
							}
						}
					}
				}
				JOINT LeftShoulder
				{
					OFFSET 0 0 0
					CHANNELS 3 Zrotation Yrotation Xrotation
					JOINT LeftArm
					{
						OFFSET 2.17674 1.86763 -0.06520
						CHANNELS 3 Zrotation Yrotation Xrotation
						JOINT LeftForeArm
						{
							OFFSET 4.65776 -0.00000 0.00000
							CHANNELS 3 Zrotation Yrotation Xrotation
							JOINT LeftHand
							{
								OFFSET 3.55539 -0.00000 0.00000
								CHANNELS 3 Zrotation Yrotation Xrotation
								JOINT LeftFingerBase
								{
									OFFSET 0 0 0
									CHANNELS 3 Zrotation Yrotation Xrotation
									JOINT LeftHandIndex1
									{
										OFFSET 0.70726 -0.00000 0.00000
										CHANNELS 3 Zrotation Yrotation Xrotation
										End Site
										{
											OFFSET 0.57022 -0.00000 0.00000
										}
									}
								}
								JOINT LThumb
								{
									OFFSET 0 0 0
									CHANNELS 3 Zrotation Yrotation Xrotation
									End Site
									{
										OFFSET 0.57892 -0.00000 0.57892
									}
								}
							}
						}
					}
				}
				JOINT RightShoulder
				{
					OFFSET 0 0 0
					CHANNELS 3 Zrotation Yrotation Xrotation
					JOINT RightArm
					{
						OFFSET -2.80694 1.55459 -0.32496
						CHANNELS 3 Zrotation Yrotation Xrotation
						JOINT RightForeArm
						{
							OFFSET -4.71925 -0.00000 -0.00000
							CHANNELS 3 Zrotation Yrotation Xrotation
							JOINT RightHand
							{
								OFFSET -3.56990 -0.00000 0.00000
								CHANNELS 3 Zrotation Yrotation Xrotation
								JOINT RightFingerBase
								{
									OFFSET 0 0 0
									CHANNELS 3 Zrotation Yrotation Xrotation
									JOINT RightHandIndex1
									{
										OFFSET -0.50776 -0.00000 0.00000
										CHANNELS 3 Zrotation Yrotation Xrotation
										End Site
										{
											OFFSET -0.40937 -0.00000 0.00000
										}
									}
								}
								JOINT RThumb
								{
									OFFSET 0 0 0
									CHANNELS 3 Zrotation Yrotation Xrotation
									End Site
									{
										OFFSET -0.41562 -0.00000 0.41562
									}
								}
							}
						}
					}
				}
			}
		}
	}
}
MOTION
Frames: 11
Frame Time: .0083333
9.9616 16.4417 4.4886 177.3020 1.9342 -160.8150 0.0000 0.0000 0.0000 -8.3626 -21.0976 -74.3900 22.3411 19.8681 96.8593 0.9024 -0.4362 -17.8149 2.2844 -9.4350 -27.1657 0.0000 0.0000 0.0000 18.6341 15.2199 -19.8113 -0.3172 -3.6203 10.0109 -0.7540 -2.2620 -17.3722 -4.4440 12.7289 -38.3620 -5.7312 -0.5939 -18.4462 0.0367 0.5603 2.1588 3.4740 -0.1385 12.8016 -1.4086 -2.9802 -4.0023 3.0770 -3.3068 19.8388 1.0490 -0.9804 6.7689 0.0000 -0.0000 0.0000 -83.5544 4.5561 21.6822 12.8994 -21.1397 -2.4169 -0.0000 -0.0000 8.6850 20.1391 -9.6405 -3.5143 -7.1250 0.0000 -0.0000 -4.8724 19.7433 2.9507 0.0000 -0.0000 0.0000 87.7138 -2.0360 9.2678 -23.7758 34.9262 -7.5778 0.0000 -0.0000 -5.3436 -10.4966 -51.6585 8.2683 7.1250 -0.0000 -0.0000 62.7034 -74.7037 -47.8978
9.9688 16.4430 4.4275 177.2890 1.9681 -160.8790 0.0000 0.0000 0.0000 -7.9315 -21.2288 -75.4518 22.1136 19.8925 96.1905 0.9243 -0.3163 -18.0706 2.2638 -9.3953 -27.0398 0.0000 0.0000 0.0000 18.7499 15.1504 -19.5381 -0.3212 -3.6427 10.0737 -0.7659 -2.3024 -17.5194 -4.4696 12.7604 -38.4779 -5.6804 -0.5441 -18.2655 -0.0176 0.6092 2.1546 3.3957 -0.1058 12.6860 -1.3975 -2.9798 -3.9771 3.0365 -3.2928 19.8853 1.0359 -0.9726 6.7782 -0.0000 0.0000 0.0000 -83.5578 4.7499 21.3505 12.7381 -20.9022 -2.3590 -0.0000 -0.0000 8.8487 20.4046 -10.1214 -3.7402 -7.1250 0.0000 -0.0000 -4.6903 19.2156 2.8949 -0.0000 0.0000 0.0000 87.6467 -1.7921 9.6786 -24.0236 35.1892 -7.7201 0.0000 -0.0000 -5.6447 -10.4106 -51.4295 8.1743 7.1250 -0.0000 -0.0000 61.9708 -74.5831 -47.1219
9.9737 16.4411 4.3580 177.3380 1.9336 -160.8420 0.0000 0.0000 0.0000 -7.3466 -21.4311 -76.7449 21.9273 19.9107 95.6431 0.9428 -0.2074 -18.2889 2.1819 -9.2352 -26.5338 0.0000 0.0000 0.0000 18.9664 14.9604 -19.2625 -0.3161 -3.6140 9.9931 -0.7746 -2.3269 -17.6243 -4.5726 12.8857 -38.9420 -5.5301 -0.5136 -18.3136 -0.0809 0.6279 2.1424 3.2452 -0.0829 12.6991 -1.6497 -3.0048 -3.8886 3.3366 -3.3564 19.7970 1.1706 -1.0006 6.7454 -0.0000 -0.0000 0.0000 -83.5018 4.8741 20.8889 12.4971 -20.5459 -2.2737 -0.0000 -0.0000 9.0703 20.5662 -10.5755 -3.9392 -7.1250 0.0000 -0.0000 -4.5843 18.7226 2.8794 -0.0000 -0.0000 0.0000 87.6353 -1.6119 10.1222 -24.3256 35.5067 -7.8949 0.0000 -0.0000 -5.8297 -9.9875 -51.2617 7.8213 7.1250 -0.0000 -0.0000 61.6646 -74.3576 -46.6112
9.9814 16.4401 4.2930 177.2770 2.0589 -160.8390 0.0000 0.0000 0.0000 -6.9152 -21.5085 -77.9541 21.7025 19.9304 94.9834 0.9564 -0.0347 -18.4794 2.0138 -8.8948 -25.4668 0.0000 0.0000 0.0000 19.0086 14.9668 -18.8802 -0.3063 -3.5580 9.8362 -0.7845 -2.3585 -17.7447 -4.5903 12.9070 -39.0214 -5.5828 -0.4367 -18.3419 -0.1741 0.7591 2.2895 3.2096 -0.0309 12.8741 -1.6237 -2.9488 -4.4258 3.3819 -3.2967 20.1024 1.1809 -0.9579 6.9374 0.0000 0.0000 0.0000 -83.4356 4.6330 20.4256 12.2681 -20.2056 -2.1940 -0.0000 -0.0000 9.3060 20.1432 -10.3138 -3.7573 -7.1250 0.0000 -0.0000 -4.8790 19.0316 3.0323 0.0000 0.0000 0.0000 87.6438 -1.1237 10.4807 -24.6036 35.7961 -8.0569 0.0000 -0.0000 -5.9758 -9.8022 -51.2361 7.6723 7.1250 -0.0000 -0.0000 61.6943 -74.2779 -46.5516
9.9884 16.4400 4.2291 177.2980 2.2319 -160.8530 0.0000 0.0000 0.0000 -6.4860 -21.4299 -79.0163 21.4282 19.9510 94.1789 0.9905 0.0548 -18.8380 1.9681 -8.7993 -25.1696 0.0000 0.0000 0.0000 19.1397 14.9927 -18.5224 -0.3009 -3.5272 9.7500 -0.8059 -2.2519 -17.9163 -4.5842 12.8996 -38.9939 -5.6187 -0.3453 -18.3873 -0.1862 0.8945 2.3281 3.2564 0.0268 12.9322 -1.6141 -1.4422 -4.2283 3.5392 -3.8545 19.9404 1.0739 -2.1946 6.8627 -0.0000 0.0000 0.0000 -83.5154 4.7026 20.0042 12.0866 -19.9343 -2.1317 -0.0000 -0.0000 9.4905 19.8498 -9.7323 -3.4922 -7.1250 0.0000 -0.0000 -5.0799 19.6665 3.0860 -0.0000 0.0000 0.0000 87.5876 -0.8950 10.8561 -24.8698 36.0706 -8.2131 0.0000 -0.0000 -6.0762 -10.2342 -51.9796 8.0949 7.1250 -0.0000 -0.0000 63.9617 -74.7231 -49.0367
9.9973 16.4397 4.1679 177.3180 2.3137 -160.8890 0.0000 0.0000 0.0000 -6.1208 -21.3499 -79.9246 21.0936 19.9713 93.1989 1.0073 0.2950 -19.0824 2.2041 -9.2788 -26.6715 0.0000 0.0000 0.0000 19.2873 14.9331 -18.2285 -0.3029 -3.5385 9.7817 -0.8266 -2.1720 -18.0910 -4.5570 12.8668 -38.8719 -5.6443 -0.3209 -18.2631 -0.1894 0.9245 2.3658 3.2740 0.0387 12.8995 -1.6451 -1.4133 -4.0392 3.3263 -3.7196 19.6259 1.0260 -2.1404 6.7206 -0.0000 0.0000 0.0000 -83.6405 4.7942 19.4073 11.9029 -19.6588 -2.0695 -0.0000 -0.0000 9.8455 20.1486 -9.8894 -3.6058 -7.1250 0.0000 -0.0000 -4.8689 19.4796 2.9773 -0.0000 0.0000 0.0000 87.5235 -0.5236 11.2116 -24.9375 36.1400 -8.2530 0.0000 -0.0000 -5.8649 -10.1100 -51.7164 7.9675 7.1250 -0.0000 -0.0000 63.1248 -74.5797 -48.1373
10.0059 16.4395 4.1073 177.1770 2.4214 -160.9280 0.0000 0.0000 0.0000 -5.9547 -21.3557 -80.6584 20.6692 19.9893 91.9570 0.9944 0.6351 -19.0862 2.4677 -9.7789 -28.2638 0.0000 0.0000 0.0000 19.2287 14.7731 -18.0042 -0.3060 -3.5565 9.8323 -0.8447 -2.0716 -18.2283 -4.5120 12.8122 -38.6693 -5.8014 -0.2894 -18.1255 -0.2967 1.0098 2.4212 3.2657 0.0723 12.8750 -1.5191 -1.4377 -4.3788 3.1761 -3.8059 20.1580 0.9413 -2.1921 6.9500 0.0000 -0.0000 0.0000 -83.6459 4.8676 18.7942 11.7773 -19.4698 -2.0275 -0.0000 -0.0000 10.3160 20.4282 -10.3558 -3.8304 -7.1250 0.0000 -0.0000 -4.6777 18.9659 2.9131 0.0000 -0.0000 0.0000 87.5675 -0.0826 11.6312 -25.0705 36.2760 -8.3316 0.0000 -0.0000 -5.7621 -10.4375 -52.1583 8.2769 7.1250 -0.0000 -0.0000 64.4748 -74.8630 -49.6471
10.0091 16.4409 4.0430 176.9130 2.5671 -160.9510 0.0000 0.0000 0.0000 -5.9526 -21.4290 -81.2562 20.1909 19.9991 90.5582 0.9877 0.6676 -19.0350 2.4093 -9.6711 -27.9180 0.0000 0.0000 0.0000 18.9836 14.5835 -17.8543 -0.3135 -3.5995 9.9527 -0.8705 -1.8926 -18.4052 -4.5354 12.8407 -38.7749 -6.0338 -0.2223 -18.1018 -0.4365 1.1752 2.5212 3.2888 0.1347 12.9613 -1.2377 -1.4337 -4.1309 2.8884 -3.6829 19.5839 0.8200 -2.1181 6.7083 -0.0000 -0.0000 0.0000 -83.5863 4.8069 18.5129 11.6926 -19.3420 -1.9993 -0.0000 -0.0000 10.4493 20.2287 -10.1503 -3.7156 -7.1250 0.0000 -0.0000 -4.8157 19.1981 2.9748 -0.0000 -0.0000 0.0000 87.5480 0.4706 12.0222 -25.1661 36.3733 -8.3882 0.0000 -0.0000 -5.8911 -10.8828 -52.5187 8.6745 7.1250 -0.0000 -0.0000 65.5337 -75.1534 -50.9151
10.0111 16.4424 3.9741 176.6990 2.7245 -160.9550 0.0000 0.0000 0.0000 -5.9404 -21.4370 -81.8176 19.7346 19.9983 89.2240 0.9935 0.5009 -19.0272 2.2808 -9.4279 -27.1434 0.0000 0.0000 0.0000 18.7691 14.5633 -17.7259 -0.3310 -3.6975 10.2270 -0.9127 -1.7195 -18.7464 -4.5717 12.8846 -38.9381 -6.1756 -0.1551 -18.1867 -0.5706 1.3287 2.6236 3.2654 0.1954 13.1169 -1.4566 -1.5147 -4.6083 3.0731 -3.8347 19.9766 0.8953 -2.1878 6.9299 0.0000 -0.0000 0.0000 -83.4544 4.7635 18.4577 11.6251 -19.2401 -1.9770 -0.0000 -0.0000 10.2008 19.9203 -9.8351 -3.5422 -7.1250 0.0000 -0.0000 -5.0308 19.5531 3.0688 0.0000 -0.0000 0.0000 87.4991 0.9073 12.4231 -25.2246 36.4327 -8.4229 0.0000 -0.0000 -6.0932 -10.3946 -51.7880 8.2016 7.1250 -0.0000 -0.0000 63.2078 -74.7136 -48.3556
10.0142 16.4418 3.9006 176.7000 2.8995 -160.9720 0.0000 0.0000 0.0000 -5.7678 -21.3197 -82.3319 19.2831 19.9877 87.9035 0.9766 0.7233 -18.9510 2.5412 -9.9124 -28.6935 0.0000 0.0000 0.0000 18.8338 14.5778 -17.4759 -0.3407 -3.7510 10.3772 -0.9536 -1.5076 -19.0513 -4.5099 12.8097 -38.6601 -6.1402 -0.0728 -18.2298 -0.6481 1.4462 2.6380 3.1931 0.2556 13.1498 -1.5904 -1.5288 -4.7785 3.2229 -3.9482 20.4662 0.9502 -2.2544 7.1270 -0.0000 0.0000 0.0000 -83.4477 4.8709 17.8197 11.4724 -19.0087 -1.9270 -0.0000 -0.0000 10.4997 19.9362 -9.9524 -3.5870 -7.1250 0.0000 -0.0000 -5.0209 19.4283 3.0767 -0.0000 0.0000 0.0000 87.4381 1.0925 13.0820 -25.4375 36.6478 -8.5497 0.0000 -0.0000 -6.2576 -10.1985 -53.2682 8.2044 7.1250 -0.0000 -0.0000 68.5780 -75.1222 -53.6552
10.0169 16.4420 3.8298 176.7710 2.9938 -160.9760 0.0000 0.0000 0.0000 -5.5136 -21.2526 -82.7549 18.8051 19.9657 86.5044 0.9494 1.0428 -18.8148 2.7474 -10.2744 -29.8701 0.0000 0.0000 0.0000 19.0030 14.5099 -17.1646 -0.3375 -3.7332 10.3273 -0.9767 -1.3705 -19.2135 -4.4454 12.7307 -38.3684 -6.0617 -0.0329 -18.1880 -0.6684 1.4808 2.6452 3.1348 0.2789 13.1316 -1.6194 -1.4438 -4.1893 3.2575 -3.7568 19.7798 0.9943 -2.1575 6.7961 -0.0000 0.0000 0.0000 -83.5602 4.8764 16.8310 11.2104 -18.6100 -1.8425 -0.0000 -0.0000 11.2378 20.1882 -10.1297 -3.7001 -7.1250 0.0000 -0.0000 -4.8442 19.2228 2.9899 -0.0000 0.0000 0.0000 87.3620 1.4101 13.6893 -25.4616 36.6721 -8.5641 0.0000 -0.0000 -6.2330 -10.2282 -53.6561 8.2693 7.1250 -0.0000 -0.0000 69.9944 -75.2369 -55.0905
